<?xml version="1.0" standalone="no"?>
<!DOCTYPE svg PUBLIC "-//W3C//DTD SVG 20010904//EN"
 "http://www.w3.org/TR/2001/REC-SVG-20010904/DTD/svg10.dtd">
<svg version="1.0" xmlns="http://www.w3.org/2000/svg"
 width="300.000000pt" height="350.000000pt" viewBox="0 0 300.000000 350.000000"
 preserveAspectRatio="xMidYMid meet">

<g transform="translate(0.000000,350.000000) scale(0.100000,-0.100000)"
fill="#000000" stroke="none">
<path d="M535 3198 c-42 -24 -44 -35 -45 -250 0 -131 4 -216 11 -231 15 -33
49 -47 110 -47 42 0 55 5 80 29 l29 29 0 212 0 212 -29 29 c-25 25 -37 29 -83
29 -29 0 -62 -6 -73 -12z"/>
<path d="M1784 3198 c-39 -18 -44 -49 -44 -264 l0 -206 29 -29 c26 -25 37 -29
86 -29 49 0 60 4 86 29 l29 29 0 206 c0 218 -5 246 -47 265 -30 14 -111 13
-139 -1z"/>
<path d="M178 2940 c-44 -13 -87 -49 -108 -90 -19 -38 -20 -62 -20 -950 0
-888 1 -912 20 -950 23 -45 60 -73 115 -89 27 -7 220 -11 594 -11 l554 0 -7
38 c-3 20 -6 72 -6 114 l0 77 -489 3 c-477 3 -490 4 -518 24 -65 47 -63 31
-63 647 l0 557 980 0 980 0 0 -210 0 -210 53 -1 c28 0 73 -4 100 -8 l47 -8 0
469 c0 451 -1 470 -20 508 -11 22 -39 52 -62 67 -37 25 -52 28 -144 31 l-102
4 -4 -135 c-3 -134 -3 -136 -34 -174 -46 -57 -104 -83 -189 -83 -85 0 -143 26
-189 83 -31 38 -31 40 -34 173 l-4 134 -399 0 -399 0 0 -120 c0 -99 -3 -127
-19 -158 -40 -78 -103 -112 -208 -112 -78 0 -133 21 -175 66 -41 44 -48 75
-48 205 l0 119 -87 -1 c-49 0 -100 -4 -115 -9z"/>
<path d="M615 2131 c-70 -32 -105 -86 -105 -162 0 -147 170 -232 286 -144 68
52 91 143 55 220 -22 48 -44 69 -94 90 -48 20 -93 19 -142 -4z"/>
<path d="M1160 2134 c-45 -20 -68 -41 -91 -86 -61 -119 27 -258 163 -258 118
0 206 121 169 233 -34 102 -144 153 -241 111z"/>
<path d="M1690 2128 c-157 -80 -115 -319 58 -336 67 -6 114 11 156 58 80 89
51 231 -58 281 -55 25 -102 24 -156 -3z"/>
<path d="M2145 1700 c-160 -29 -278 -90 -391 -205 -135 -136 -203 -302 -204
-496 0 -327 234 -618 553 -686 109 -23 270 -14 372 21 219 75 386 249 456 476
30 96 32 270 5 370 -67 246 -263 442 -503 504 -76 20 -222 28 -288 16z m191
-241 c242 -44 414 -281 377 -520 -36 -231 -229 -399 -457 -399 -130 0 -241 46
-331 135 -226 226 -159 611 129 746 100 47 177 57 282 38z"/>
<path d="M2037 1223 l-57 -58 87 -87 88 -88 -88 -88 -87 -87 57 -58 58 -57 87
87 88 88 88 -88 87 -87 58 57 57 58 -87 87 -88 88 88 88 87 87 -57 58 -58 57
-87 -87 -88 -88 -88 88 -87 87 -58 -57z"/>
<path d="M595 1576 c-60 -36 -88 -93 -83 -166 7 -102 74 -164 179 -164 44 -1
64 5 96 26 46 30 83 96 83 146 0 65 -45 138 -102 168 -44 23 -126 18 -173 -10z"/>
<path d="M1145 1581 c-90 -56 -120 -153 -75 -241 66 -128 262 -126 321 3 42
94 8 195 -83 243 -39 20 -127 18 -163 -5z"/>
</g>
</svg>
