<svg xmlns="http://www.w3.org/2000/svg" height="48" viewBox="0 -960 960 960" width="48"><path d="m418-145-53-49Q241-307 150-414T59-642q0-99.091 66.186-166.545Q191.373-876 288.51-876 339-876 388-854q49 22 91 74 47-52 93-74t97.245-22q99.019 0 165.887 67.455Q902-741.091 902-642q0 121-93 228.5T594-193l-51.791 47.667Q514.012-121 479.506-121T418-145Zm31-532q-25-47-69.618-77.5-44.619-30.5-89.808-30.5-60.85 0-100.212 40.357T150-641.464q0 54.916 37.318 117.13 37.318 62.215 89.476 120.566 52.159 58.352 108.873 109.133 56.714 50.78 93.025 83.635 36.692-34 93.201-85.636 56.508-51.636 109.307-108.5Q734-462 772.5-524.266 811-586.533 811-642.285 811-704 770.568-744.5 730.135-785 669.487-785q-46.655 0-92.071 30T508-677q-5.296 9-13.379 13-8.083 4-17.288 4-8.494 0-15.525-4-7.03-4-12.808-13Zm31 178Z"/></svg>